<?xml version="1.0" encoding="UTF-8"?>
<svg id="Kit_icone_app_B" data-name="Kit icone app B" xmlns="http://www.w3.org/2000/svg" viewBox="0 0 1024 1024">
  <defs>
    <style>
      .cls-1 {
        fill: #222;
      }
    </style>
  </defs>
  <g id="Icona_e_badge_app_circolare">
    <g id="Principale">
      <path class="cls-1" d="m1013.87,619.63L668.12,31.09c-4.51-7.7-12.47-12.21-21.49-12.21s-16.98,4.78-21.49,12.21l-111.45,189.99L401.98,31.36c-4.51-7.7-12.47-12.21-21.49-12.21s-16.98,4.78-21.49,12.21L13.51,619.63c-5.84,9.82-4.25,22.02,3.71,29.98l345.75,345.75c4.78,4.78,11.14,7.16,17.51,7.16s12.74-2.39,17.51-7.16l115.69-115.43,115.43,115.43c4.78,4.78,11.14,7.16,17.51,7.16s12.74-2.39,17.51-7.16l345.75-345.75c8.23-7.96,9.82-20.43,3.98-29.98Zm-633.12,323.19L66.05,628.12,380.75,92.65l104.28,177.25-205.65,349.73c-5.84,9.82-4.25,22.02,3.71,29.98l195.3,195.3-97.65,97.91Zm132.94-623.83l181.76,309.13-181.76,181.76-181.76-181.76,181.76-309.13Zm132.94,623.83l-97.91-97.91,195.3-195.3c7.96-7.96,9.55-20.43,3.71-29.98l-205.38-349.46,104.28-177.25,314.7,535.47-314.7,314.44Z"/>
    </g>
  </g>
</svg>